<svg width="109" height="16" viewBox="0 0 109 16" fill="none" xmlns="http://www.w3.org/2000/svg">
<path d="M103.234 0.0078125C103.926 0.0078125 104.682 0.0863948 105.509 0.245117C106.337 0.403769 107.243 0.680364 108.229 1.07324C108.211 1.40936 108.169 1.723 108.112 2.01758C108.052 2.31208 107.98 2.6141 107.89 2.91992C107.803 3.22589 107.693 3.55171 107.564 3.89551C107.436 4.2392 107.284 4.62814 107.107 5.0625C106.439 4.7867 105.815 4.58649 105.244 4.45801C104.674 4.32959 104.179 4.26562 103.768 4.26562C103.118 4.26563 102.566 4.36325 102.113 4.55957C101.659 4.75605 101.296 5.02496 101.021 5.35742C100.745 5.69359 100.541 6.0826 100.416 6.52441C100.288 6.96632 100.223 7.42728 100.223 7.89941C100.223 9.21791 100.511 10.1891 101.081 10.8125C101.651 11.4321 102.491 11.7422 103.594 11.7422H104.126V7.39746C104.617 7.29922 105.056 7.23103 105.441 7.18945C105.826 7.15173 106.192 7.12892 106.548 7.12891C107.235 7.12891 108.055 7.21599 109 7.39355V14.9004C108.43 15.1158 107.628 15.3544 106.604 15.6113C105.573 15.8719 104.383 16 103.023 16C101.603 16 100.397 15.7884 99.4033 15.3652C98.4098 14.942 97.5941 14.3639 96.9668 13.6348C96.3358 12.9057 95.8785 12.0484 95.5918 11.0625C95.3044 10.0764 95.165 9.02146 95.165 7.89941C95.1651 6.8152 95.338 5.79132 95.6816 4.82422C96.0253 3.85721 96.5399 3.02269 97.2197 2.3125C97.8996 1.60221 98.7423 1.04256 99.7471 0.626953C100.752 0.211381 101.916 0.0078568 103.234 0.0078125ZM23.1621 0C24.1858 2.54154e-05 25.1112 0.12464 25.9385 0.370117C26.7659 0.615675 27.4689 0.997784 28.0508 1.50781C28.6324 2.02147 29.0782 2.67481 29.3955 3.47168C29.709 4.26876 29.8681 5.22115 29.8682 6.32422V14.9844C29.1201 15.1998 28.2129 15.4184 27.1475 15.6338C26.0821 15.8491 24.9598 15.959 23.7773 15.959C22.7536 15.959 21.8126 15.8638 20.9551 15.6787C20.0977 15.4898 19.3649 15.1918 18.7529 14.7764C18.141 14.3609 17.6651 13.8166 17.3213 13.1367C16.985 12.468 16.8105 11.6365 16.8105 10.6504C16.8106 9.68696 17.0188 8.88579 17.4307 8.25488C17.8461 7.62423 18.3749 7.12201 19.0244 6.74805C19.6741 6.37408 20.3922 6.11323 21.1816 5.96582C21.9711 5.81853 22.7384 5.74319 23.4863 5.74316H25.2891C25.2702 5.38804 25.1717 5.09247 24.9941 4.85449C24.8166 4.6166 24.5901 4.43507 24.3145 4.30664C24.0388 4.17829 23.7325 4.09214 23.3965 4.04297C23.0603 3.99391 22.7163 3.96682 22.3613 3.9668C21.889 3.9668 21.337 4.02031 20.7061 4.12988C20.0752 4.23945 19.4255 4.40951 18.7568 4.64746C18.5793 4.31124 18.4283 4.00807 18.2998 3.72852C18.1715 3.45287 18.0729 3.17369 18.0049 2.88672C17.9368 2.59971 17.8877 2.30492 17.8574 1.99902C17.8272 1.69305 17.8125 1.34495 17.8125 0.948242C18.7569 0.63476 19.6979 0.39691 20.6348 0.238281C21.5715 0.0796736 22.4142 0 23.1621 0ZM40.0381 0.0146484C40.9447 0.0146607 41.8322 0.0986144 42.6973 0.268555C43.5625 0.434855 44.3408 0.74069 45.0322 1.18652C45.7198 1.62853 46.279 2.24036 46.7021 3.01855C47.1253 3.79688 47.3369 4.8058 47.3369 6.04883C47.3369 7.17075 47.1441 8.11881 46.7588 8.88574C46.3734 9.65266 45.8673 10.2768 45.2363 10.749C44.6056 11.2211 43.8917 11.5608 43.0947 11.7686C42.2976 11.9764 41.4846 12.0781 40.6572 12.0781C40.321 12.0781 40.0378 12.0668 39.7998 12.0479C39.5618 12.0289 39.4141 12.0109 39.3574 11.9883V15.6221C38.8437 15.7203 38.3866 15.7852 37.9824 15.8154C37.5783 15.8457 37.2195 15.8603 36.9023 15.8604C36.5661 15.8604 36.2067 15.8457 35.8213 15.8154C35.436 15.7852 34.9903 15.7203 34.4766 15.6221V0.426758H34.4844C35.391 0.290792 36.3206 0.185174 37.2764 0.117188C38.2321 0.0492056 39.1541 0.0146484 40.0381 0.0146484ZM56.7686 0.0146484C57.6752 0.0146636 58.5635 0.0985857 59.4287 0.268555C60.2938 0.434876 61.0717 0.740787 61.7627 1.18652C62.4501 1.62854 63.0093 2.24035 63.4326 3.01855C63.8559 3.79688 64.0674 4.8058 64.0674 6.04883C64.0674 7.17062 63.8751 8.11885 63.4902 8.88574C63.1045 9.65266 62.598 10.2768 61.9668 10.749C61.3357 11.2211 60.6218 11.5608 59.8242 11.7686C59.0274 11.9763 58.215 12.0781 57.3877 12.0781C57.0516 12.0781 56.7682 12.0668 56.5303 12.0479C56.2923 12.0289 56.1445 12.0109 56.0879 11.9883V15.6221C55.5742 15.7203 55.1171 15.7852 54.7129 15.8154C54.3089 15.8457 53.9501 15.8603 53.6328 15.8604C53.2966 15.8604 52.9371 15.8457 52.5518 15.8154C52.1664 15.7852 51.7207 15.7203 51.207 15.6221V0.426758H51.2148C52.1215 0.290795 53.0511 0.185173 54.0068 0.117188C54.9626 0.0492078 55.8846 0.0146484 56.7686 0.0146484ZM70.4561 0.0986328C70.8298 0.0986354 71.2344 0.116704 71.6689 0.158203C72.1033 0.199769 72.5264 0.268031 72.9375 0.366211V15.6182C72.4243 15.6975 71.9636 15.7544 71.5479 15.7959C71.1321 15.8337 70.7582 15.8564 70.4258 15.8564C70.0897 15.8564 69.7155 15.8374 69.3037 15.7959C68.8887 15.7544 68.4349 15.6975 67.9434 15.6182V0.366211C68.3779 0.26798 68.8053 0.199778 69.2285 0.158203C69.6517 0.120474 70.0592 0.0986328 70.4561 0.0986328ZM83.9326 0.0722656C84.7979 0.0722752 85.667 0.147536 86.5322 0.294922C87.3975 0.44225 88.1832 0.752351 88.8818 1.22461C89.5812 1.69681 90.1519 2.37689 90.5977 3.26465C91.0396 4.1525 91.2627 5.32407 91.2627 6.78223V15.6191C90.7487 15.7174 90.2878 15.7813 89.8721 15.8115C89.4565 15.8418 89.0939 15.8564 88.7803 15.8564C88.4442 15.8564 88.0701 15.8418 87.6582 15.8115C87.2424 15.7814 86.7809 15.7174 86.2676 15.6191V7.31055C86.2676 6.26782 86.071 5.51967 85.6777 5.0625C85.2852 4.60932 84.6841 4.38281 83.876 4.38281C83.6607 4.38282 83.4268 4.40184 83.1816 4.44336C82.9355 4.48494 82.7807 4.52272 82.7236 4.56055V15.6152C82.2105 15.7134 81.7496 15.7774 81.334 15.8076C80.9182 15.8379 80.5549 15.8525 80.2412 15.8525C79.9051 15.8525 79.531 15.8379 79.1191 15.8076C78.7035 15.7774 78.2424 15.7134 77.7285 15.6152V1.10352C78.4159 0.865492 79.2552 0.634822 80.2412 0.408203C81.2198 0.18531 82.4519 0.0722656 83.9326 0.0722656ZM13.8828 1.31445L7.67871 11.5986H13.3232C13.4592 12.4071 13.5312 13.0947 13.5312 13.6689C13.5312 13.9637 13.5166 14.2662 13.4863 14.5723C13.4562 14.8782 13.4025 15.2369 13.3232 15.6523H0.90918L0.436523 14.7646L6.61328 4.41992H1.55859C1.46049 3.9856 1.39645 3.60797 1.36621 3.2832C1.33597 2.95824 1.32031 2.64816 1.32031 2.35352C1.32032 2.05899 1.336 1.75701 1.36621 1.45117C1.39646 1.14512 1.46043 0.785735 1.55859 0.370117H13.5879L13.8828 1.31445ZM23.6074 8.875C22.9162 8.87503 22.3382 9.02183 21.8623 9.31641C21.3901 9.61109 21.1514 10.027 21.1514 10.5596C21.1514 10.9524 21.2385 11.2663 21.416 11.4893C21.5935 11.7158 21.8167 11.8898 22.0811 12.0068C22.3454 12.1239 22.6326 12.2035 22.9385 12.2451C23.2482 12.2867 23.5283 12.3057 23.7852 12.3057C23.9626 12.3057 24.2195 12.2867 24.5518 12.2451C24.8881 12.2074 25.1343 12.1658 25.293 12.1279V8.875H23.6074ZM39.8223 3.82715C39.675 3.82716 39.5201 3.83859 39.3652 3.85742V8.25879H39.3613C39.4595 8.27768 39.5843 8.29238 39.7314 8.30371C39.8788 8.31504 40.0044 8.31934 40.1025 8.31934C40.7898 8.31925 41.3561 8.14532 41.8018 7.80176C42.2438 7.45789 42.4668 6.87224 42.4668 6.04492C42.4668 5.33459 42.2438 4.79065 41.8018 4.40527C41.3598 4.02002 40.8119 3.82715 40.1621 3.82715H39.8223ZM56.5527 3.82715C56.4054 3.82716 56.2505 3.8386 56.0957 3.85742V8.25879H56.0918C56.1899 8.27768 56.3147 8.29238 56.4619 8.30371C56.6092 8.31504 56.7348 8.31934 56.833 8.31934C57.5202 8.31926 58.0866 8.14532 58.5322 7.80176C58.9743 7.45789 59.1982 6.87224 59.1982 6.04492C59.1982 5.33459 58.9743 4.79065 58.5322 4.40527C58.0902 4.02002 57.5422 3.82715 56.8926 3.82715H56.5527Z" fill="url(#paint0_linear_8902_584)"/>
<defs>
<linearGradient id="paint0_linear_8902_584" x1="109" y1="8.00001" x2="0.436523" y2="8.00001" gradientUnits="userSpaceOnUse">
<stop stop-color="#F0F179"/>
<stop offset="0.64" stop-color="#FE3960"/>
<stop offset="1" stop-color="#FF245D"/>
</linearGradient>
</defs>
</svg>
